PathFileType	4	(X/Y/Z)	 s03c0203.trc
DataRate	CameraRate	NumFrames	NumMarkers	Units	OrigDataRate	OrigDataStartFrame	OrigNumFrames
200	200	4	50	mm	200	1751	2000
Frame#	Time	racr			lacr			c7			jug			rlel			rdr			llel			ldr			s2			lic			ric			lasi			rasi			rpsi			lpsi			rgt			lgt			rth1			rth2			rth3			rth4			rlfc			rmfc			rsh1			rsh2			rsh3			rsh4			rlmal			rcal			rtoe			rmt5			rmt1			lth1			lth2			lth4			lth3			llfc			lmfc			lsh1			lsh2			lsh3			lsh4			llmal			lcal			ltoe			lmt1			lmt5			SBIKE			LBIKE			RBIKE			
		X1	Y1	Z1	X2	Y2	Z2	X3	Y3	Z3	X4	Y4	Z4	X5	Y5	Z5	X6	Y6	Z6	X7	Y7	Z7	X8	Y8	Z8	X9	Y9	Z9	X10	Y10	Z10	X11	Y11	Z11	X12	Y12	Z12	X13	Y13	Z13	X14	Y14	Z14	X15	Y15	Z15	X16	Y16	Z16	X17	Y17	Z17	X18	Y18	Z18	X19	Y19	Z19	X20	Y20	Z20	X21	Y21	Z21	X22	Y22	Z22	X23	Y23	Z23	X24	Y24	Z24	X25	Y25	Z25	X26	Y26	Z26	X27	Y27	Z27	X28	Y28	Z28	X29	Y29	Z29	X30	Y30	Z30	X31	Y31	Z31	X32	Y32	Z32	X33	Y33	Z33	X34	Y34	Z34	X35	Y35	Z35	X36	Y36	Z36	X37	Y37	Z37	X38	Y38	Z38	X39	Y39	Z39	X40	Y40	Z40	X41	Y41	Z41	X42	Y42	Z42	X43	Y43	Z43	X44	Y44	Z44	X45	Y45	Z45	X46	Y46	Z46	X47	Y47	Z47	X48	Y48	Z48	X49	Y49	Z49	X50	Y50	Z50	
1751	8.7550	465.918749	1415.049111	-94.397206	431.521760	1425.434807	-411.415368	381.220944	1501.248014	-245.530238	397.110887	1325.753122	-242.986793	503.697227	1173.358083	53.571755	714.577998	983.880417	-6.086697	492.574035	1174.669619	-520.611628	719.648370	983.650477	-445.831337	-121.285292	1188.839641	-198.114376	20.421837	1240.996193	-397.389721	54.978280	1229.859318	-29.577988	58.774635	1173.770514	-353.803807	88.855713	1165.080117	-78.957037	-96.665968	1240.277775	-152.534817	-100.225033	1243.484101	-235.432209	0.813902	1103.561285	-18.305413	-6.708819	1154.223007	-412.010240	80.026262	958.005495	-4.726004	149.564108	902.202078	-3.420763	183.740799	823.889524	-15.793103	179.011173	923.974817	-10.791430	241.465071	713.177358	-51.015903	249.965080	701.196336	-168.742768	212.121407	549.085717	-25.408809	222.786352	461.464620	-41.153132	188.182771	380.205219	-43.955605	251.949229	460.308171	-66.245181	159.418932	250.930822	-69.381909	97.082221	214.271776	-104.714564	404.918594	172.573463	-110.926878	285.123892	167.547886	-39.351210	311.828294	185.582191	-152.023270	116.926993	1089.488725	-453.265841	201.958349	1082.631420	-469.375182	216.529970	1115.162005	-458.433279	273.989552	1030.979289	-482.254128	404.904108	982.481333	-482.171518	421.721046	969.213579	-350.219516	300.011594	846.620608	-480.930307	269.457122	771.763062	-452.651410	199.199022	716.924745	-438.305967	297.277732	756.934180	-431.396132	118.957380	626.874903	-405.399934	44.118969	607.309388	-354.160745	326.074757	482.464657	-355.487927	236.729502	514.261526	-312.895259	207.405200	506.947253	-426.895176	-218.028508	944.982570	-231.416218	-8.041648	84.009025	-436.859480	-13.976704	80.705586	-36.612154	
1752	8.7600	466.884393	1415.849185	-97.132166	429.953168	1425.521528	-413.474404	380.781686	1501.606257	-247.420701	397.072399	1326.149421	-244.827291	504.822292	1174.448594	52.562233	715.019309	983.961378	-6.486387	491.587474	1174.179447	-520.531743	719.867023	983.796633	-446.088357	-121.257118	1189.232565	-196.889884	19.739683	1241.626175	-396.312539	56.060008	1229.561912	-29.149201	58.286742	1174.308708	-352.104855	89.879921	1165.132164	-78.416962	-95.870711	1240.207281	-151.293917	-100.351590	1243.938406	-234.039196	0.778992	1103.340072	-17.494446	-6.648175	1155.708563	-411.165593	79.315248	957.488364	-3.853326	148.518780	901.371652	-2.353296	182.296150	822.794409	-14.727082	178.183473	922.844376	-9.790028	239.218736	711.591130	-50.040560	248.266670	699.906686	-167.806341	207.201868	547.925133	-25.060097	216.326935	460.300759	-41.274471	180.905686	379.520628	-44.142728	246.185852	458.727495	-65.704475	150.501018	250.762939	-70.090159	87.526596	214.926610	-105.397851	395.121971	168.372192	-110.741053	274.974231	165.302376	-39.672889	302.388609	182.872048	-152.249216	117.356608	1091.164819	-451.954862	202.467458	1084.916715	-467.865615	216.698998	1117.688699	-457.527322	275.033426	1033.764085	-480.081242	406.421676	987.719155	-480.539660	423.259990	974.645901	-348.329306	303.774614	850.114712	-479.977337	274.195091	774.808979	-451.865387	204.738774	718.812507	-437.957243	302.108780	760.392077	-430.449887	125.853380	627.220203	-405.565901	51.012797	605.951855	-354.357603	336.258055	488.372502	-356.468266	246.124896	517.703192	-312.778890	216.804866	509.633846	-426.976606	-217.987806	944.992176	-231.406798	-8.040413	84.059693	-436.862007	-13.951450	80.750095	-36.615625	
1753	8.7650	467.604950	1416.313131	-99.541048	428.453842	1425.562554	-415.414700	380.332696	1501.999777	-249.167406	396.661009	1326.546231	-246.627265	505.973764	1175.575937	51.565702	715.392198	984.036337	-7.053369	490.868826	1173.827586	-520.610926	720.027731	983.921099	-446.307409	-121.267452	1189.666524	-195.796749	19.152184	1242.220719	-395.412965	57.075962	1229.373009	-28.650340	57.788567	1174.864024	-350.633506	90.762702	1165.222139	-77.876325	-95.040897	1240.171820	-150.196292	-100.522259	1244.474671	-232.744937	0.799530	1103.273208	-16.759034	-6.672920	1157.111801	-410.477088	78.852003	957.257170	-2.910064	147.957829	900.729384	-1.440711	181.363537	822.026952	-13.669182	177.609909	922.201271	-8.910440	237.664245	710.436607	-49.122660	247.263601	698.904930	-166.983820	202.688553	547.263447	-24.742741	210.347950	459.680738	-41.157270	173.681782	379.449895	-44.410589	240.417301	457.564402	-65.323456	141.465357	251.113828	-71.026289	78.615056	216.256360	-106.815338	384.994795	165.001386	-110.351143	264.540134	163.737550	-40.030097	292.845071	180.715948	-152.520760	117.808208	1092.728685	-450.899622	202.963293	1087.076272	-466.352574	216.786271	1120.147531	-456.378138	275.961718	1036.490564	-477.472754	407.768772	992.568812	-478.769752	424.584038	979.512345	-346.371749	307.398725	853.110959	-479.008780	278.919228	777.300964	-451.006052	210.278867	720.169674	-437.574748	306.943347	763.380303	-429.457973	132.837140	626.983288	-405.536963	58.242469	604.001851	-354.517080	346.339221	493.185775	-355.994364	255.523310	520.416575	-313.395809	226.334785	511.605900	-427.023556	-217.963135	945.008223	-231.405309	-8.029430	84.067248	-436.878599	-13.969663	80.759813	-36.617359	
1754	8.7700	468.759177	1416.948342	-101.337264	426.953992	1425.653664	-417.366231	379.874598	1502.325719	-250.846730	396.719031	1326.924859	-248.087125	507.063952	1176.609474	50.621738	715.716628	984.088588	-7.838764	490.115944	1173.461885	-520.717173	720.142882	984.030253	-446.549434	-121.364795	1190.119488	-194.842043	18.453577	1243.081242	-394.562080	57.880182	1229.339072	-28.129854	57.282098	1175.430206	-349.377442	91.427285	1165.372473	-77.348985	-94.563458	1240.284765	-149.157636	-100.619916	1245.104402	-231.504297	0.780508	1103.229948	-16.041524	-6.785557	1158.374145	-409.834292	78.687078	957.053795	-2.283952	147.757563	900.372298	-0.671341	181.067802	821.690016	-12.782806	177.444381	921.863586	-8.221380	236.818229	709.627704	-48.158181	246.707663	698.263779	-166.087456	198.632557	547.113212	-24.391688	204.777576	459.337557	-41.044166	166.646156	379.931388	-44.679144	234.992869	456.834709	-65.033959	132.488999	252.288484	-72.019864	69.296699	218.361415	-108.260863	374.830394	162.091984	-109.674741	253.861136	162.791800	-40.309050	283.185406	179.304738	-152.717960	118.179839	1094.183268	-449.696949	203.411634	1089.118084	-464.959194	216.957451	1121.920762	-454.033233	276.935768	1039.245389	-475.636041	408.926131	997.089584	-476.943445	425.746557	983.769681	-344.371948	310.894119	855.668452	-477.929374	283.504200	779.343765	-450.067388	215.730319	721.232115	-436.923805	311.673586	765.896922	-428.524644	139.976700	626.221471	-405.493788	66.101837	601.400002	-354.538534	356.365247	497.410626	-355.856892	265.551426	523.342244	-312.722116	236.029607	512.933643	-426.992029	-217.820400	944.975554	-231.520409	-8.038682	84.124091	-436.825183	-13.993707	80.782173	-36.641415	
